<svg xmlns="http://www.w3.org/2000/svg" width="35" height="38"><path d="M1193.5 6276a3.5 3.5 0 1 0 3.5 3.5 3.5 3.5 0 0 0-3.5-3.5Zm-10.5-28v3.5h3.5l6.3 13.3-2.45 4.2a5.982 5.982 0 0 0-.35 1.75 3.51 3.51 0 0 0 3.5 3.5h21v-3.5h-20.3a.376.376 0 0 1-.35-.35v-.18l1.57-2.97h12.95a3.2 3.2 0 0 0 2.98-1.75l6.3-11.38a.955.955 0 0 0 .35-.87 1.653 1.653 0 0 0-1.75-1.75h-25.9l-1.58-3.5H1183Zm28 28a3.5 3.5 0 1 0 3.5 3.5 3.5 3.5 0 0 0-3.5-3.5Z" style="fill:#fff;fill-rule:evenodd" transform="translate(-1183 -6246.5)"/></svg>