<svg xmlns="http://www.w3.org/2000/svg" width="37" height="38"><path d="M242.314 6269v-.84a1.814 1.814 0 1 0-3.628 0v.84a1.814 1.814 0 1 0 3.628 0Zm1.245 1.03a3.173 3.173 0 0 1-6.118 0h-12.5a4.954 4.954 0 0 1-2.2-.52v8.48a2.981 2.981 0 0 0 2.945 3h29.623a2.982 2.982 0 0 0 2.946-3v-8.48a4.965 4.965 0 0 1-2.2.52h-12.496Zm12.372-15.22h-7.07a5.654 5.654 0 0 0-5.529-4.82h-5.665a5.655 5.655 0 0 0-5.529 4.82h-7.07a3.052 3.052 0 0 0-3.068 3.01v6.94a2.98 2.98 0 0 0 2.945 3.01H237.3a3.289 3.289 0 0 1 .981-2.2c.018-.02.038-.03.057-.05a3.39 3.39 0 0 1 .405-.33 1.144 1.144 0 0 1 .164-.09c.119-.07.237-.14.366-.2.1-.04.21-.07.316-.1a2.518 2.518 0 0 1 .273-.08 2.749 2.749 0 0 1 1.544.08 3.211 3.211 0 0 1 .315.1c.129.06.246.13.365.2a1.284 1.284 0 0 1 .166.09 3.38 3.38 0 0 1 .4.33c.018.02.04.03.057.05a3.285 3.285 0 0 1 .981 2.2h12.357a2.974 2.974 0 0 0 2.946-3.01v-6.94a3.051 3.051 0 0 0-3.062-3.01Zm-20.957 0a2.844 2.844 0 0 1 2.693-2h5.665a2.846 2.846 0 0 1 2.693 2h-11.051Z" style="fill:#fff;fill-rule:evenodd" transform="translate(-222 -6246.5)"/></svg>