<svg xmlns="http://www.w3.org/2000/svg" width="43" height="38"><path d="M1680.5 6276.43c1.19 0 11.12-12.27 11.12-18.38a11.12 11.12 0 0 0-22.24 0c0 6.11 9.97 18.38 11.12 18.38Zm-7.19-18.76a7.19 7.19 0 1 1 7.19 7.14 7.161 7.161 0 0 1-7.19-7.14Zm26.95 10.3a1.859 1.859 0 0 0-1.86-1.84h-6.78a.465.465 0 0 0-.48.29c-.36.6-.32.54-.66 1.1a.205.205 0 0 0 .18.34h7.74a.12.12 0 0 1 .12.11l1.74 15.18a.129.129 0 0 1-.12.12h-39.28a.129.129 0 0 1-.12-.12l1.74-15.18a.12.12 0 0 1 .12-.11h7.68c.16 0 .41-.09.13-.55-.34-.54-.21-.39-.56-.98a.512.512 0 0 0-.56-.2h-6.69a1.859 1.859 0 0 0-1.86 1.84l-1.74 15.18a1.854 1.854 0 0 0 1.86 1.85h39.28a1.854 1.854 0 0 0 1.86-1.85Z" style="fill:#fff;fill-rule:evenodd" transform="translate(-1659 -6247)"/></svg>