<svg xmlns="http://www.w3.org/2000/svg" width="28" height="38"><path d="M721 6265.6c4.093 0 7.411-3.94 7.411-8.8s-1.089-8.81-7.411-8.81-7.41 3.95-7.41 8.81 3.317 8.8 7.41 8.8Zm-14 13.44c0-.29 0-.08 0 0Zm28 .23c0-.08 0-.56 0 0Zm-.016-.58c-.137-8.48-1.268-10.89-9.923-12.41a6.177 6.177 0 0 1-8.116 0c-8.56 1.51-9.76 3.88-9.918 12.13a1.606 1.606 0 0 1-.021.63v.89s2.061 4.06 14 4.06 14-4.06 14-4.06v-.66a4.579 4.579 0 0 1-.026-.58Z" style="fill:#fff;fill-rule:evenodd" transform="translate(-707 -6247)"/></svg>