<svg xmlns="http://www.w3.org/2000/svg" width="22" height="36"><path d="M410.274 1814.57h.863a.864.864 0 0 0 .863-.86v-.85a.858.858 0 0 0-.863-.86h-20.274a.858.858 0 0 0-.863.86v.85a.864.864 0 0 0 .863.86h.862c0 7.63 6.121 7.93 6.471 12.43-.35 4.5-6.471 4.8-6.471 12.43h-.862a.856.856 0 0 0-.863.85v.86a.864.864 0 0 0 .863.86h20.274a.864.864 0 0 0 .863-.86v-.86a.856.856 0 0 0-.863-.85h-.863c0-7.63-6.12-7.93-6.47-12.43.35-4.5 6.47-4.8 6.47-12.43Zm-2.615 24.14a.433.433 0 0 1-.355.68h-12.675a.432.432 0 0 1-.373-.65 24.017 24.017 0 0 1 6.455-6.92.45.45 0 0 1 .559.03 41.12 41.12 0 0 1 6.389 6.86Zm-6.693-13.8-4.6-4.56a13.518 13.518 0 0 0 4.193.94c1.881 0 3.487-1.33 4.9-1.33s-4.493 4.95-4.493 4.95Z" style="fill:#18cfab;fill-rule:evenodd" transform="translate(-390 -1809)"/></svg>