<svg xmlns="http://www.w3.org/2000/svg" width="34" height="36"><path d="M828.952 1834.76a.164.164 0 0 0-.13-.06h-33.644a.167.167 0 0 0-.131.06.183.183 0 0 0-.04.14c0 .03.513 3.1 4.451 3.1h25.084c3.938 0 4.446-3.07 4.451-3.1a.18.18 0 0 0-.041-.14Zm-14.422 2.16h-5.061v-1.14h5.061v1.14Zm-15.857-3.41h26.654a.7.7 0 0 0 .7-.69v-16.14a.693.693 0 0 0-.7-.68h-26.654a.692.692 0 0 0-.7.68v16.14a.694.694 0 0 0 .7.69Zm1.745-15.1h23.164v12.69h-23.164v-12.69Z" style="fill:#18cfab;fill-rule:evenodd" transform="translate(-795 -1809)"/></svg>