<svg xmlns="http://www.w3.org/2000/svg" width="20" height="36"><path d="M404.945 2025.66h-9.89a.95.95 0 0 0 0 1.9h9.891a.95.95 0 0 0-.001-1.9Zm-.209 2.73h-9.472a.94.94 0 0 0 0 1.88h9.471a.94.94 0 0 0 .001-1.88Zm-1.237 2.73h-7a.928.928 0 0 0-.925.94.937.937 0 0 0 .93.94h6.996a.94.94 0 0 0 0-1.88Zm-3.337-33.12h-.324c-5.433 0-9.838 4.91-9.838 10.97 0 2.82.745 4.62 2.53 7.31 1.07 1.61 2.549 2.83 2.778 8.47h9.383c.23-5.64 1.71-6.85 2.778-8.46 1.785-2.7 2.531-4.51 2.531-7.33 0-6.05-4.4-10.96-9.838-10.96Zm3.459 12.69-3.323 3.46v8.09a.3.3 0 1 1-.6 0v-8.09l-3.324-3.46a.311.311 0 0 1 .007-.44.3.3 0 0 1 .439 0l3.175 3.3 3.174-3.3a.305.305 0 0 1 .44 0 .312.312 0 0 1 .012.44Z" style="fill:#18cfab;fill-rule:evenodd" transform="translate(-390 -1997.5)"/></svg>