<svg xmlns="http://www.w3.org/2000/svg" width="27" height="36"><path d="M1217.17 2019.01h-.66a.615.615 0 0 1-.61-.62.476.476 0 0 1 .14-.34 4.431 4.431 0 0 0 .93-1.42.314.314 0 0 0 .16.06 1.5 1.5 0 0 0 .8-1.38c0-.56-.05-1.01-.42-1.01a.708.708 0 0 0-.14.01c-.02-1.51-.4-3.41-2.7-3.41-2.4 0-2.68 1.89-2.71 3.41a.34.34 0 0 0-.1-.01c-.37 0-.42.45-.42 1.01a1.5 1.5 0 0 0 .8 1.38.2.2 0 0 0 .13-.04 4.338 4.338 0 0 0 .93 1.4.476.476 0 0 1 .14.34.623.623 0 0 1-.62.62h-.66a2.554 2.554 0 0 0-2.54 2.56v.71a.8.8 0 0 0 .8.81h8.49a.8.8 0 0 0 .8-.81v-.71a2.548 2.548 0 0 0-2.54-2.56Zm7.62-7.03h-7.12a5.43 5.43 0 0 1 .41 1.72.97.97 0 0 1 .36.43h6.35a.593.593 0 0 0 .59-.6v-.95a.593.593 0 0 0-.59-.6Zm0 3.92h-6.2a2.1 2.1 0 0 1-1.16 1.49l-.06.09v.57h7.42a.6.6 0 0 0 .59-.6v-.95a.593.593 0 0 0-.59-.6Zm0 3.92h-4.84a3.279 3.279 0 0 1 .5 1.75v.4h4.34a.593.593 0 0 0 .59-.6v-.95a.593.593 0 0 0-.59-.6Zm2.55-13.82h-19.68a3.672 3.672 0 0 0-3.66 3.68v14.63a3.675 3.675 0 0 0 3.66 3.69h19.68a3.675 3.675 0 0 0 3.66-3.69v-14.63a3.672 3.672 0 0 0-3.66-3.68Zm1.93 18.31a1.936 1.936 0 0 1-1.93 1.95h-19.68a1.936 1.936 0 0 1-1.93-1.95v-14.63a1.933 1.933 0 0 1 1.93-1.94h19.68a1.933 1.933 0 0 1 1.93 1.94v14.63Z" style="fill:#18cfab;fill-rule:evenodd" transform="translate(-1204 -1999)"/></svg>