<svg xmlns="http://www.w3.org/2000/svg" width="99" height="97"><path d="M1631 1193h38.8v-57.02H1631V1193Zm20.22-2.86a1.835 1.835 0 1 1 1.87-1.84 1.855 1.855 0 0 1-1.87 1.84Zm-14.61-48.67h27.58v42.07h-27.58v-42.07Zm13.58-19.11h62.17v24.72h5.48V1117h-73.13v16.54h5.48v-11.18Zm22.11 36.51h28.81v5.37h-28.81v-5.37Zm31.64-9.71v42.95H1730v-42.95h-26.06Zm13.61 1.78a.62.62 0 1 1-.63.62.619.619 0 0 1 .63-.62Zm-3.75 2.06h7.5v.59h-7.5v-.59Zm3.5 37.25a1.471 1.471 0 1 1 1.51-1.47 1.492 1.492 0 0 1-1.51 1.47Zm8.52-5.05c-6.77.03-14.34.06-17.7.03v-29.53h17.7v29.5Zm-45.59-18.76h-7.93v3.25h19.31v1.42h-19.31v2.94h28.81v-7.61h-20.88Z" style="fill:#fff;fill-rule:evenodd" transform="translate(-1631 -1106.5)"/></svg>