<svg xmlns="http://www.w3.org/2000/svg" width="58" height="97" viewBox="0 0 15.346 25.665"><path d="M.044 42.324a.592.592 0 0 1-.302-.359c-.015-.05-.027-.397-.027-.772v-.681h9.61v.681c0 .375-.012.723-.026.772a.592.592 0 0 1-.302.359l-.136.067H.18Zm-.555-2.969c-1.705-1.812-3.042-3.833-3.72-5.624-.224-.59-.309-.974-.293-1.322.009-.206.024-.275.093-.422a1.09 1.09 0 0 1 1.095-.651c.18.011.258.03.416.105.272.13.427.28.73.714.405.58.591.79.944 1.057.322.245.663.374 1.103.419.293.03.412.002.477-.11.03-.05.038-1.128.049-6.016l.013-5.954.077-.165c.356-.764 1.64-.805 1.975-.063.076.168.024-.301.672 5.984.08.778.146 1.436.146 1.462 0 .041.012.038.103-.021.34-.223.884-.277 1.415-.141.826.212 5.115 1.587 5.377 1.723.18.095.418.337.513.524.146.287.145.264.146 2.859 0 2.527-.01 2.783-.121 3.22-.114.446-.259.744-.831 1.717l-.551.936-4.808-.002-4.807-.002zm-.294-13.539a4.813 4.813 0 0 1-2.458-5.456A4.82 4.82 0 0 1 .383 16.83a4.845 4.845 0 0 1 3.03.338 4.822 4.822 0 0 1 2.665 3.312 4.53 4.53 0 0 1 .084 1.612 4.805 4.805 0 0 1-2.138 3.469l-.195.13-.015-.086c-.007-.047-.11-1.023-.227-2.168-.181-1.765-.224-2.113-.28-2.29-.192-.602-.712-1.047-1.381-1.183a2.155 2.155 0 0 0-1.211.114c-.536.206-.918.611-1.11 1.18l-.063.186-.008 2.256c-.005 1.752-.014 2.256-.04 2.255-.017 0-.152-.063-.299-.14z" style="fill:#18cfab;fill-opacity:1;stroke-width:.0265783" transform="translate(4.526 -16.726)"/></svg>