<svg xmlns="http://www.w3.org/2000/svg" width="60" height="96" viewBox="0 0 15.875 25.4"><path d="M32.053 64.817a1.616 1.616 0 0 1-1.244-1.473v-.073h6.352v.073c0 .04-.018.156-.04.258a1.609 1.609 0 0 1-1.217 1.216c-.265.056-3.591.055-3.851-.001zm-2.297-2.39a.777.777 0 0 1-.514-.592.795.795 0 0 1 .292-.779c.233-.177-.04-.168 4.505-.16l4.115.007.15.074c.284.14.431.38.431.706 0 .327-.147.568-.43.707l-.151.074-4.13.006c-3.945.005-4.134.004-4.268-.043zm0-2.381a.777.777 0 0 1-.514-.592.795.795 0 0 1 .292-.779c.233-.178-.04-.168 4.505-.16l4.115.007.15.074c.284.139.431.38.431.706 0 .327-.147.568-.43.707l-.151.074-4.13.006c-3.945.005-4.134.003-4.268-.043zm-.05-2.369a.783.783 0 0 1-.487-.416c-.035-.069-.07-.242-.105-.52-.106-.842-.23-1.41-.46-2.108-.258-.778-.544-1.386-1.202-2.547-.59-1.04-.83-1.555-1.048-2.228-.358-1.111-.455-2.557-.252-3.758a7.94 7.94 0 0 1 5.861-6.389c4.503-1.157 9.028 1.792 9.805 6.39.203 1.2.106 2.646-.252 3.757-.217.673-.441 1.15-1.038 2.208-.432.767-.773 1.431-.94 1.832-.377.904-.621 1.863-.744 2.922-.054.471-.163.662-.46.808l-.15.074-4.21.005c-3.409.004-4.229-.002-4.318-.03zm4.332-3.137v-1.587h.245c1.2 0 2.109-.667 2.601-1.905.2-.504.346-1.12.424-1.786.093-.809.094-2.076.002-3.109-.075-.843-.107-1.137-.123-1.137-.053 0-1.058.283-1.389.391-1.225.401-2.27.945-3.013 1.567-.605.508-1.071 1.187-1.27 1.852-.125.417-.137.516-.136 1.084.001.46.01.584.061.817.151.697.46 1.427.861 2.034.06.09.118.165.13.165.01 0 .02-.108.02-.241 0-.46.128-1.117.308-1.571.311-.788.881-1.454 1.549-1.81.182-.098.467-.2.491-.177a.712.712 0 0 1-.126.162c-.827.912-1.628 3.247-2.142 6.239-.045.259-.08.5-.08.535v.064H34.037z" style="fill:#18cfab;fill-opacity:1;stroke-width:.0264624" transform="translate(-26.048 -39.46)"/></svg>