<svg xmlns="http://www.w3.org/2000/svg" width="44" height="30"><path d="M947.658 7675.9a9.55 9.55 0 1 1-9.615 9.55l-.043-1.36a19.156 19.156 0 0 1 19.231-19.09v5.45a13.716 13.716 0 0 0-9.713 3.99 14.666 14.666 0 0 0-1.366 1.58 10.661 10.661 0 0 1 1.506-.12Zm24.726 0a9.55 9.55 0 1 1-9.615 9.55l-.043-1.36a19.156 19.156 0 0 1 19.231-19.09v5.45a13.716 13.716 0 0 0-9.713 3.99 14.676 14.676 0 0 0-1.367 1.58 10.676 10.676 0 0 1 1.507-.12Z" style="fill:#18cfab;fill-rule:evenodd" transform="translate(-938 -7665)"/></svg>